<?xml version="1.0" encoding="UTF-8"?> <svg xmlns="http://www.w3.org/2000/svg" width="146" height="146" viewBox="0 0 146 146" fill="none"><g clip-path="url(#clip0_1390_2056)"><path d="M17.9955 86.5488V62.0938C17.9955 61.7726 18.2135 61.539 18.5479 61.539H26.3537C32.4879 61.539 35.3951 64.97 35.3951 69.934C35.3951 74.898 32.4879 78.2852 26.3537 78.2852H23.7372V86.5342C23.7372 86.8554 23.5192 87.089 23.1849 87.089H18.5333C18.199 87.089 17.981 86.87 17.981 86.5342L17.9955 86.5488ZM26.2084 73.1898C28.1417 73.1898 29.915 72.5766 29.915 69.9486C29.915 67.3206 28.1417 66.6636 26.2084 66.6636H23.7372V73.1898H26.2084Z" fill="#ffffff"></path><path d="M36.3837 86.4758L44.8146 61.9916C44.9309 61.6996 45.2071 61.5536 45.4978 61.5536H50.44C50.7307 61.5536 51.0215 61.6996 51.1232 61.9916L59.5541 86.4758C59.6995 86.8408 59.5105 87.089 59.118 87.089H54.2485C53.9578 87.089 53.7397 86.9722 53.638 86.651L52.5478 83.22H43.39L42.2998 86.651C42.1836 86.9722 41.9801 87.089 41.6893 87.089H36.8634C36.4564 87.089 36.2528 86.8408 36.3837 86.4758ZM50.9197 78.1246L47.9834 68.8974L45.0326 78.1246H50.9197Z" fill="#ffffff"></path><path d="M76.7939 86.7386L71.6045 78.3144H70.2963V86.5634C70.2963 86.8846 70.0783 87.1182 69.7439 87.1182H65.0924C64.7726 87.1182 64.54 86.8992 64.54 86.5634V62.1084C64.54 61.7872 64.7581 61.5536 65.0924 61.5536H72.8983C79.0325 61.5536 81.9397 64.9846 81.9397 69.9486C81.9397 73.5548 80.3698 76.3726 77.1428 77.6136L82.7682 86.4466C83.0299 86.8554 82.8409 87.1036 82.4048 87.1036H77.4335C77.1428 87.1036 76.9247 86.9868 76.7794 86.7386H76.7939ZM72.7674 73.2044C74.6862 73.2044 76.4741 72.5912 76.4741 69.9632C76.4741 67.3352 74.7007 66.6782 72.7674 66.6782H70.2963V73.2044H72.7674Z" fill="#ffffff"></path><path d="M88.0156 86.5488V62.0938C88.0156 61.7726 88.2337 61.539 88.568 61.539H93.2195C93.5393 61.539 93.7719 61.758 93.7719 62.0938V72.7518L101.694 61.8456C101.868 61.6266 102.101 61.5536 102.348 61.5536H108.017C108.497 61.5536 108.526 61.8894 108.308 62.2106L99.9206 72.8248L109.325 86.432C109.573 86.797 109.442 87.089 109.006 87.089H103.598C103.308 87.089 103.119 87.016 102.944 86.7678L96.4029 77.3508L93.7864 80.6796V86.5488C93.7864 86.87 93.5684 87.1036 93.2341 87.1036H88.5825C88.2482 87.1036 88.0302 86.8846 88.0302 86.5488H88.0156Z" fill="#ffffff"></path><path d="M112.364 83.4828C112.189 83.2638 112.189 82.9718 112.436 82.6798L114.864 79.9058C115.082 79.6576 115.373 79.5408 115.707 79.789C117.379 81.4242 118.76 82.2272 120.678 82.2272C122.597 82.2272 123.833 81.4972 123.833 79.8912C123.833 78.402 122.742 77.9202 121.143 77.1902L118.062 75.7302C115.373 74.533 112.829 72.5912 112.829 68.62C112.829 63.8458 116.419 61.247 120.853 61.247C123.862 61.247 126.376 62.4442 128.484 64.6342C128.702 64.8532 128.731 65.189 128.513 65.4664L126.115 68.3426C125.94 68.6054 125.606 68.7076 125.359 68.5178C123.731 67.1308 122.524 66.5176 121.042 66.5176C119.37 66.5176 118.396 67.3498 118.396 68.6638C118.396 70.0508 119.414 70.4888 121.26 71.3648L123.833 72.5328C126.522 73.803 129.429 75.482 129.429 79.862C129.429 85.191 125.068 87.4832 120.78 87.4832C116.754 87.4832 113.875 85.4684 112.349 83.439L112.364 83.4828Z" fill="#ffffff"></path><path d="M31.7029 134.247L19.0275 129.882C18.8821 129.823 18.7949 129.677 18.7949 129.517V126.655C18.7949 126.509 18.8676 126.334 19.0275 126.275L31.7029 121.91C31.8919 121.837 32.0227 121.954 32.0227 122.158V124.991C32.0227 125.137 31.9646 125.283 31.7901 125.326L30.2057 125.823V130.363L31.7901 130.86C31.9646 130.918 32.0227 131.035 32.0227 131.181V134.013C32.0227 134.218 31.8919 134.335 31.7029 134.262V134.247ZM27.2985 126.728L22.9668 128.071L27.2985 129.444V126.728Z" fill="#ffffff"></path><path d="M31.8337 112.186L24.2314 116.245H31.7175C31.8919 116.245 32.0227 116.377 32.0227 116.552V119.267C32.0227 119.443 31.8919 119.559 31.7175 119.559H19.1002C18.9257 119.559 18.7949 119.443 18.7949 119.267V116.143C18.7949 115.997 18.8531 115.88 18.9839 115.807L26.6153 111.734H19.1002C18.9257 111.734 18.7949 111.617 18.7949 111.442V108.726C18.7949 108.551 18.9257 108.42 19.1002 108.42H31.7175C31.8919 108.42 32.0227 108.551 32.0227 108.726V111.865C32.0227 112.011 31.9646 112.128 31.8337 112.201V112.186Z" fill="#ffffff"></path><path d="M31.7175 105.324H19.1002C18.9257 105.324 18.7949 105.208 18.7949 105.032V100.667C18.7949 96.3016 21.7312 93.8926 25.4088 93.8926C29.0864 93.8926 32.0227 96.3016 32.0227 100.667V105.032C32.0227 105.208 31.8919 105.324 31.7175 105.324ZM29.1155 100.725C29.1155 98.4624 27.8509 97.236 25.4088 97.236C22.9668 97.236 21.7021 98.4624 21.7021 100.725V102.01H29.1155V100.725Z" fill="#ffffff"></path><path d="M59.4817 131.05L50.7746 117.457H46.3993V130.772C46.3993 131.269 46.0649 131.604 45.5707 131.604H40.9628C40.4686 131.604 40.1924 131.269 40.1924 130.772V93.44C40.1924 92.9436 40.4686 92.6078 40.9628 92.6078H52.1701C60.9935 92.6078 65.427 97.7324 65.427 105.032C65.427 110.887 62.5924 115.282 56.9379 116.844L65.9212 130.612C66.3137 131.225 66.0375 131.619 65.3688 131.619H60.4847C60.0341 131.619 59.7143 131.458 59.4817 131.064V131.05ZM51.8794 111.88C55.9785 111.88 59.4236 110.259 59.4236 105.032C59.4236 99.8056 55.9785 98.185 51.8794 98.185H46.3847V111.894H51.8794V111.88Z" fill="#ffffff"></path><path d="M71.8521 130.772V93.44C71.8521 92.9436 72.1282 92.6078 72.6225 92.6078H91.8682C92.3624 92.6078 92.6531 92.9436 92.6531 93.44V97.3382C92.6531 97.8346 92.3769 98.1704 91.8682 98.1704H78.0589V108.872H91.0978C91.592 108.872 91.9263 109.208 91.9263 109.704V113.661C91.9263 114.157 91.592 114.435 91.0978 114.435H78.0589V126.027H91.8682C92.3624 126.027 92.6967 126.363 92.6967 126.859V130.758C92.6967 131.254 92.3624 131.59 91.8682 131.59H72.6225C72.1282 131.59 71.8521 131.254 71.8521 130.758V130.772Z" fill="#ffffff"></path><path d="M97.0864 112.274C97.0864 100.901 105.692 92.1552 116.943 92.1552C122.437 92.1552 126.871 94.2138 130.316 97.4988C130.708 97.893 130.766 98.2726 130.374 98.7252L127.539 101.791C127.205 102.185 126.813 102.185 126.377 101.85C123.833 99.6158 120.78 98.2872 117.001 98.2872C109.239 98.2872 103.351 104.2 103.351 112.274C103.351 120.348 109.224 126.202 117.001 126.202C120.78 126.202 123.818 124.859 126.377 122.64C126.827 122.246 127.205 122.304 127.539 122.64L130.374 125.764C130.825 126.159 130.708 126.538 130.316 126.932C126.871 130.276 122.437 132.334 116.943 132.334C105.677 132.334 97.0864 123.647 97.0864 112.274Z" fill="#ffffff"></path><path d="M115.619 43.3912L114.747 43.0992C113.381 44.7782 112.073 46.428 110.706 48.0486C109.282 49.7422 107.508 50.9248 105.284 51.3044C102.944 51.6986 101.897 50.954 101.461 48.5304C101.083 48.7932 100.735 48.983 100.444 49.2458C99.2809 50.2532 97.9436 50.881 96.4319 51.0854C94.3387 51.3628 93.6555 50.8372 93.3211 48.6034C92.7542 48.9538 92.2746 49.3334 91.7367 49.5816C90.6756 50.0634 89.6145 50.6328 88.4952 50.881C86.6346 51.2898 85.806 50.5744 85.4281 48.399C84.9048 48.7348 84.4542 49.0998 83.9454 49.348C82.957 49.8298 81.9685 50.4138 80.9074 50.6328C78.2763 51.1584 77.4187 50.1948 78.0728 47.3186C77.3896 47.8004 76.8809 48.1508 76.3867 48.5304C74.9621 49.6254 73.5231 50.6036 71.5898 50.5014C69.7437 50.3992 68.8425 49.3918 69.4094 47.6106C69.8745 46.1798 70.5577 44.749 71.4589 43.5664C73.6684 40.6172 76.4448 38.2082 79.7736 36.6022C81.0818 35.9744 82.6081 35.6824 84.0617 35.551C85.399 35.4342 85.806 36.1058 85.6607 37.741C86.809 36.3978 87.9864 35.4926 89.847 36.2226C88.2045 38.1498 86.6491 39.9164 85.1664 41.7414C83.5675 43.7124 81.9976 45.7126 80.5149 47.7566C80.1951 48.2092 79.9916 49.1582 80.2532 49.5232C80.7329 50.1948 81.5615 49.859 82.2301 49.5232C84.4106 48.4428 86.1113 46.866 87.623 44.9242C93.3066 37.6242 99.121 30.441 104.892 23.214C105.72 22.1774 106.593 21.1846 107.494 20.221C107.944 19.7392 108.453 19.272 109.02 18.9946C109.485 18.761 110.096 18.8048 110.648 18.7172C110.575 19.3012 110.677 20.0166 110.386 20.4546C109.456 21.827 108.424 23.1556 107.319 24.4112C104.092 28.105 100.676 31.6382 97.6238 35.4634C94.4695 39.42 91.635 43.654 88.6841 47.7712C88.2481 48.3698 87.623 49.1436 88.3062 49.8298C88.9894 50.5452 89.8034 49.9466 90.4866 49.5524C92.7978 48.2238 94.455 46.282 96.083 44.165C100.894 37.9162 105.924 31.8134 110.895 25.696C112.422 23.8126 114.05 21.9876 115.678 20.1772C116.157 19.6516 116.797 19.2428 117.436 18.9216C117.742 18.761 118.439 18.7902 118.541 18.98C118.73 19.2866 118.745 19.9144 118.541 20.1918C117.393 21.7978 116.259 23.4476 114.936 24.9076C109.209 31.2148 103.584 37.6242 98.714 44.6322C97.9436 45.7418 97.2023 46.8806 96.4609 48.0194C96.3156 48.253 96.1411 48.5158 96.1121 48.764C96.0539 49.1728 95.9522 49.8152 96.1557 49.9758C96.4609 50.2094 97.1005 50.2678 97.4639 50.1072C98.4669 49.64 99.4117 49.0414 100.328 48.4282C101.258 47.815 101.97 47.012 102.493 45.9754C104.616 41.7998 107.915 38.7922 112.16 36.865C112.959 36.5 113.875 36.281 114.762 36.208C116.593 36.0474 117.466 37.2884 116.826 39.0112C116.564 39.7266 116.201 40.4128 115.983 41.1428C115.779 41.8144 115.736 42.5444 115.59 43.4058L115.619 43.3912ZM72.1857 47.2456C71.9677 47.669 71.8369 48.1508 71.8514 48.6326C71.8514 48.9392 71.895 49.2458 72.0549 49.3334C72.5201 49.5816 73.276 49.3772 73.8574 49.2312C74.308 49.1144 74.7296 48.8078 75.122 48.5304C78.6107 45.9462 81.6051 42.8802 83.989 39.2448C84.3233 38.7338 84.5414 38.1206 84.6722 37.522C84.8321 36.7482 84.4106 36.2664 83.6111 36.4416C82.9424 36.573 82.2447 36.7774 81.7069 37.1716C80.1515 38.2812 78.5961 39.3908 77.2007 40.6756C75.2092 42.5006 73.5521 44.6322 72.1857 47.2748V47.2456ZM116.012 37.3176C114.805 36.9234 113.977 37.1424 112.64 38.1498C110.023 40.1062 107.886 42.5298 106.113 45.26C105.357 46.4134 104.717 47.669 104.238 48.9538C103.802 50.1218 104.63 50.881 105.822 50.5014C106.505 50.2824 107.174 49.932 107.755 49.5086C109.994 47.8588 111.753 45.7418 113.236 43.4204C113.701 42.705 113.948 41.7414 113.962 40.8946C113.991 39.3616 114.18 38.033 115.983 37.3176H116.012Z" fill="#ffffff"></path><path d="M43.259 43.0554C48.71 45.333 53.2453 43.8292 57.4607 40.5004C58.0858 41.0552 58.0858 41.0698 57.5916 41.4932C53.4052 45.114 48.681 45.9316 43.4916 44.1796C42.9102 43.9752 42.634 43.9752 42.2124 44.4862C39.0145 48.4136 35.4532 51.9614 31.0778 54.5748C27.9816 56.429 24.682 57.6262 20.9898 57.2174C17.632 56.8378 15.1609 54.6624 14.3032 51.3482C13.0822 46.5594 13.7654 41.902 15.6115 37.4344C19.4199 28.178 26.0629 21.4766 34.6682 16.6002C34.9735 16.425 35.2787 16.2644 35.6131 16.1476C37.7935 15.3884 39.9303 14.5562 42.0235 13.505C46.0645 11.461 50.0328 13.4612 51.2684 17.8704C51.9952 20.4546 51.7771 23.068 51.2393 25.6376C49.9165 31.974 47.3146 37.741 43.2736 43.0554H43.259ZM37.9098 16.4542C34.8717 17.6222 32.1099 19.199 29.8859 21.535C24.2168 27.521 20.1176 34.4414 18.2425 42.5444C17.6901 44.8804 17.5012 47.2894 17.9227 49.6984C18.4169 52.5162 19.667 54.75 22.5888 55.6698C24.9727 56.4144 27.124 55.626 29.1736 54.5748C32.982 52.6038 35.8747 49.5816 38.5057 46.2674C39.3488 45.187 40.0902 44.0336 40.9042 42.8656C36.5143 39.7266 34.1013 35.6094 33.5635 30.3826C33.0257 25.1266 34.8136 20.6152 37.9098 16.4542ZM41.3548 14.8336C43.2445 15.1986 44.7998 15.7388 45.6575 17.3886C46.4715 18.9508 46.457 20.5568 46.0645 22.2358C45.5896 22.0606 45.3764 21.5788 45.4249 20.7904C45.5993 17.7098 43.855 15.8556 40.8024 15.768C39.9593 15.7388 39.5233 16.1768 39.0872 16.7316C35.1915 21.5934 34.0286 27.0976 35.4532 33.142C36.3108 36.8066 38.3168 39.7266 41.442 41.975C41.6891 41.5808 41.8926 41.2742 42.0816 40.953C44.8435 36.2226 46.7913 31.1564 47.8524 25.7836C48.4193 22.9658 48.6519 20.1188 47.9978 17.2718C47.2564 14.0452 44.2911 12.8772 41.3693 14.8482L41.3548 14.8336Z" fill="#ffffff"></path><path d="M53.0126 41.4786C52.5039 40.3544 52.6638 39.4784 53.0708 38.6462C53.8848 36.9526 55.3384 36.0766 57.0391 35.5072C59.5103 34.6896 62.0541 34.748 64.5688 35.04C66.3713 35.2444 67.3743 34.6604 68.3191 33.1712C70.0053 30.4848 71.9386 27.959 74.7876 26.3822C75.9651 25.7398 77.2297 25.2434 78.5089 24.8054C79.0612 24.6156 79.7299 24.7762 80.4131 24.7908C80.3113 25.112 80.2968 25.2142 80.2677 25.2288C77.5059 25.5792 75.8052 27.4772 74.2498 29.5066C72.8834 31.2878 71.6333 33.1858 70.1797 35.2736C71.6333 35.3028 72.8979 35.3758 74.148 35.3174C74.4388 35.3174 74.7295 34.8794 74.9911 34.6166C75.6743 33.945 76.4011 33.4486 77.6367 33.8136C77.3314 34.2078 77.1279 34.5144 76.8808 34.7626C75.9505 35.7262 74.9766 36.6606 74.0754 37.6534C73.334 38.471 72.5636 39.1572 71.1827 39.0404L73.6684 36.1496C72.2148 36.2372 70.9647 36.2664 69.7146 36.427C69.4384 36.4562 69.1767 36.9234 68.9587 37.2154C66.9527 39.8288 65.1066 42.5882 62.9117 45.0264C58.9579 49.4356 53.7249 50.443 48.0849 50.0196C46.3842 49.8882 44.6835 49.6108 43.259 48.5596C41.9653 47.596 41.8635 46.1214 42.9828 45.3184C43.7096 44.8074 44.2765 44.895 44.5091 45.698C45.2649 48.3698 47.4308 48.9976 49.713 49.2604C53.2016 49.6692 56.0943 48.1946 58.5654 45.8878C61.429 43.216 63.5367 39.9164 65.7317 36.7044C65.8044 36.6022 65.8044 36.4416 65.8916 36.1642C65.0921 36.135 64.3653 36.0474 63.624 36.0766C61.2255 36.1496 58.8271 36.208 56.5885 37.2154C55.0041 37.9308 53.754 38.9674 53.3615 40.7778C53.3179 40.953 53.1871 41.1136 52.969 41.5078L53.0126 41.4786Z" fill="#ffffff"></path><path d="M130.795 47.888C130.606 48.8808 129.748 49.3626 129.036 49.9174C127.641 50.9978 126.085 51.6694 124.268 51.7424C122.393 51.83 121.579 50.224 122.102 48.8224C122.582 47.5814 123.236 46.3404 124.065 45.3184C125.736 43.2744 127.568 41.3618 129.341 39.4054C129.545 39.1718 129.806 38.9528 129.908 38.6754C130.039 38.3104 130.184 37.7702 130.01 37.5658C129.835 37.3468 129.196 37.2738 128.92 37.4198C127.975 37.9308 126.986 38.4418 126.231 39.1864C122.815 42.5882 119.428 46.0484 116.128 49.567C115.081 50.6912 113.439 51.7862 111.84 51.2752C115.067 46.5594 118.715 42.267 122.204 37.5658L119.34 37.4928L119.224 37.23C119.428 37.084 119.646 36.8066 119.849 36.8066C121.594 36.8066 123.352 36.865 125.431 36.9088L121.39 42.2378L121.608 42.4422C122.597 41.537 123.556 40.6026 124.588 39.7558C125.765 38.7922 126.957 37.8432 128.237 37.0256C128.789 36.6752 129.574 36.4854 130.213 36.5438C130.868 36.6022 131.74 36.9088 132.03 37.4052C132.321 37.9016 132.278 38.9236 131.943 39.4054C130.679 41.2304 129.239 42.9386 127.873 44.6906C126.783 46.0776 125.635 47.4354 124.661 48.8954C124.544 49.056 124.501 49.275 124.486 49.5086C124.428 50.2094 124.98 50.808 125.678 50.8226C125.911 50.8226 126.143 50.808 126.347 50.7204C127.19 50.37 127.946 49.7714 128.702 49.2166C129.327 48.764 129.923 48.2384 130.519 47.742L130.795 47.9172V47.888Z" fill="#ffffff"></path><path d="M59.4087 31.7404C58.2604 32.047 57.1266 31.4776 56.3561 30.2658C55.4113 28.7766 55.6148 26.7764 56.923 25.0098C58.5802 22.7614 60.9495 21.827 63.566 21.2722C66.3569 20.6736 69.1624 21.0386 71.9678 21.17C76.5031 21.389 81.0383 21.6956 85.5736 21.7248C87.3615 21.7248 89.164 21.0824 91.0391 20.7174C90.6903 22.0022 89.6001 22.5278 88.5535 22.9512C86.1405 23.944 83.5676 24.2506 80.9947 23.9586C77.2735 23.5498 73.5814 22.9658 69.8747 22.4548C66.9384 22.0606 64.0457 22.1628 61.3275 23.506C59.6558 24.3382 58.4203 25.6084 57.8824 27.4918C57.4173 29.0978 57.6935 30.1782 58.9872 31.2878C59.1325 31.4192 59.2488 31.5652 59.4087 31.7404Z" fill="#ffffff"></path><path d="M57.8966 16.06C57.8966 16.06 58.0275 16.06 58.1001 16.06C58.5653 15.9578 59.0304 15.8556 59.4811 15.7534C59.3212 16.133 59.1613 16.5126 59.0159 16.9068C58.8124 17.4178 58.7543 18.031 58.4199 18.4106C57.3879 19.5202 56.2686 20.5422 55.1493 21.5496C55.0185 21.6664 54.6405 21.535 54.1899 21.5058C55.033 20.878 55.9924 20.5276 56.2104 19.8998C56.4139 19.3304 55.8034 18.469 55.5273 17.6076C55.4546 17.666 55.6145 17.5492 55.8761 17.3448C55.3237 17.155 54.8586 17.082 54.5097 16.8484C54.219 16.6586 54.0591 16.279 53.8411 15.987C54.1754 15.914 54.5097 15.7972 54.8586 15.7826C55.0621 15.7826 55.2801 15.914 55.4982 15.987L55.6435 15.7534C54.9167 15.2278 54.2335 14.5854 53.4341 14.1912C52.4747 13.6948 52.9253 12.7458 52.5474 12.0742C52.8526 11.9574 53.1724 11.7092 53.4486 11.753C53.6957 11.7968 53.8847 12.1618 54.2045 12.3516C53.8992 11.1982 52.7654 10.2054 53.4922 8.7308L54.7132 9.2126L54.3498 6.9934C55.6145 7.8986 55.3528 6.6576 55.8034 6.4386L57.2861 7.738L57.635 7.5044L57.5914 10.2638L58.6961 9.271C59.3793 10.8332 58.3763 11.6216 57.9112 12.5852C57.9838 12.5852 58.042 12.629 58.0711 12.6144C58.5944 12.41 59.0159 11.5924 59.6846 12.264C60.1206 12.702 59.8154 13.9576 59.1903 14.5416C58.7106 14.9942 58.2019 15.4176 57.7077 15.8556L57.9257 16.0892L57.8966 16.06Z" fill="#ffffff"></path><path d="M140.186 5.84V140.16H6.45406V5.84H140.186ZM146 0H0.639648V146H146V0Z" fill="#ffffff"></path></g><defs><clipPath id="clip0_1390_2056"><rect width="146" height="146" fill="white"></rect></clipPath></defs></svg> 